<?xml version="1.0" standalone="no"?>
<!DOCTYPE svg PUBLIC "-//W3C//DTD SVG 20010904//EN"
 "http://www.w3.org/TR/2001/REC-SVG-20010904/DTD/svg10.dtd">
<svg version="1.0" xmlns="http://www.w3.org/2000/svg"
 width="48.000000pt" height="48.000000pt" viewBox="0 0 48.000000 48.000000"
 preserveAspectRatio="xMidYMid meet">
<metadata>
Created by potrace 1.10, written by Peter Selinger 2001-2011
</metadata>
<g transform="translate(0.000000,48.000000) scale(0.100000,-0.100000)"
fill="#ffffff" stroke="none">
<path d="M170 449 c-63 -26 -130 -105 -130 -154 0 -25 17 -17 25 13 17 70 99
132 175 132 76 0 158 -62 175 -132 8 -31 25 -38 25 -10 0 32 -45 96 -88 126
-32 23 -55 30 -99 33 -32 1 -69 -2 -83 -8z"/>
<path d="M186 339 c-14 -11 -26 -27 -26 -34 0 -18 -11 -24 -68 -38 -46 -12
-47 -13 -50 -52 -7 -116 141 -215 262 -175 78 25 140 108 134 178 -3 36 -4 37
-60 51 -44 10 -58 18 -58 31 0 25 -47 60 -80 60 -15 0 -39 -9 -54 -21z m104
-26 l22 -28 -36 -3 c-20 -2 -52 -2 -72 0 l-36 3 22 28 c14 18 31 27 50 27 19
0 36 -9 50 -27z m14 -80 c-4 -16 -8 -30 -10 -32 -2 -2 -44 6 -94 19 -50 12
-100 20 -110 17 -11 -3 -20 -1 -20 3 0 12 39 17 148 19 l92 1 -6 -27z m105 7
c9 -5 -3 -13 -34 -24 -27 -9 -50 -16 -52 -16 -2 0 -3 14 -3 30 0 30 1 31 38
24 20 -4 43 -10 51 -14z m-260 -29 c24 -16 4 -26 -43 -23 -31 3 -46 9 -46 18
0 16 66 20 89 5z m274 -20 c-3 -11 -18 -24 -34 -30 -34 -12 -38 0 -9 29 26 26
50 26 43 1z m-208 -1 c11 -18 -5 -31 -26 -20 -11 6 -17 15 -14 21 8 12 32 12
40 -1z m67 -10 c6 0 6 -6 -2 -15 -11 -13 -50 -22 -50 -11 0 19 15 36 27 32 8
-3 19 -6 25 -6z m64 -6 c-3 -9 -6 -18 -6 -20 0 -2 -12 -4 -27 -4 l-28 1 24 19
c28 24 45 26 37 4z m-216 -19 c-9 -8 -24 -12 -38 -9 -35 10 -26 24 15 24 33 0
36 -2 23 -15z m60 -5 c12 -8 12 -10 -3 -16 -22 -8 -50 3 -42 16 8 12 25 13 45
0z m199 -25 c-8 -7 -27 -17 -44 -21 -30 -7 -30 -7 -11 14 16 19 54 33 65 25 3
-2 -2 -10 -10 -18z m-139 0 c-13 -16 -50 -21 -50 -7 0 15 13 22 38 22 21 0 22
-2 12 -15z m-102 -5 c18 0 15 -17 -5 -24 -10 -4 -24 1 -37 15 l-21 22 25 -7
c14 -3 31 -6 38 -6z m162 -5 c-7 -8 -21 -15 -32 -15 -17 0 -18 3 -8 15 7 8 21
15 32 15 17 0 18 -3 8 -15z m-100 -25 c0 -13 -38 -32 -51 -25 -14 10 9 35 32
35 11 0 19 -4 19 -10z m44 -27 c-10 -7 -26 -13 -37 -13 -18 0 -17 2 4 19 13
10 30 16 38 13 11 -4 10 -8 -5 -19z m96 21 c0 -8 -71 -36 -78 -30 -3 3 10 12
29 20 37 17 49 19 49 10z"/>
</g>
</svg>
